<svg xmlns="http://www.w3.org/2000/svg" viewBox="0 0 69.53 71.74"><defs><style>.bc8f538f-6ff1-40b8-ae9e-1476c92e0d51{fill:#fff;stroke:#fff;}.e94d8e77-3239-4fea-938d-95021190beca{fill:#e30613;fill-rule:evenodd;}.a4c365ad-65fe-42c3-8b11-d7760aa97d59{fill:#007858;}</style></defs><g id="ee297e28-506c-4d72-8542-93c2acb0a94d" data-name="Ebene 2"><g id="f340a3b4-e8e6-4add-8e06-3d10d3e15e19" data-name="Ebene 1"><path class="bc8f538f-6ff1-40b8-ae9e-1476c92e0d51" d="M62.14,43.47C60.89,39.94,59.75,41.7,60.8,38c0,.27.05-1.22,0-2.1-.06-.45,1.11-1.42,2.58-2.15,1.12-1.3,4.1-5.14,4.11-6.38,0-2.44-5-2-5.69-3.45.45-1.31-.2-.63-.09-1.9.21-5-3.15-7.48-7.21-5.59C50.83,19,47.46,28.66,48.71,17c-.14-1.65-.15-1-1.08-3.21-4.24-1.54-4.12-.2-3.77-5.83,0-3.57-2.13-8-4.45-7.36-2.15.92-8.18,11.62-9.67,13.67-2,5.74-13.37-2.5-12.12,5.35.19,1.9-1.89,3.12-3,.73-2-6.17-2.36-9.71-7.8-2.87-2.27,3.95-2.65,6.39-2,10,.07.56-.56,1.36-1.4,1.78s-2.6,3-2.87,3.58c-.73,3.33,6.61,5.38,8.5,6.38,0,2.62-7.38.4-4.43,7.12,1,1.75,7.15,12.45,8,13.84.85,1.83,5,1.92,6.54,1.78a5.71,5.71,0,0,0,1.33,3.63,6.32,6.32,0,0,1,1.65,2.53l1.66,1.77c3.94,0,5.82,2.5,10.66.72,4.74-2,10.12-4.55,13.89-8.18,1.69-2.94,11.24-1.34,14-1.7,2.51-.43,8,1.45,6.37-2.81Z"/><path class="bc8f538f-6ff1-40b8-ae9e-1476c92e0d51" d="M55.22,25.4h0Z"/><path class="bc8f538f-6ff1-40b8-ae9e-1476c92e0d51" d="M24.64,61.24c-.06,0,.06,0,.05,0Z"/><path class="bc8f538f-6ff1-40b8-ae9e-1476c92e0d51" d="M15.41,61.86c.32,0,.2,0,0,0Z"/><path class="e94d8e77-3239-4fea-938d-95021190beca" d="M34.79,34.08c1.74,1.78,4.64,4.28,7.09,4.12,1.85-2.67-1.11-11.86-1.44-12l.14-.1m0,0c3.68-2,11.32-16.78-2.75-6,0,0,5.36-12.67,1.85-16.37-4.66,2.14-9.07,17.1-9.07,17.1a26.52,26.52,0,0,0-10-1.85,9.49,9.49,0,0,0,3,7.11h0A17,17,0,0,0,28,29.3a24.44,24.44,0,0,0-4.27,4.78h0a16.43,16.43,0,0,0-2.16,4.43c3.57.43,7.57-2.46,9.82-4.43h0c1.11-1,1.8-1.71,1.8-1.71s.6.75,1.55,1.71m-2.87-8c.73-4.23,5-3.38,3.08,0h0c-1.12,1.67-3.46,1.39-3.46,1.39a13.51,13.51,0,0,1,.39-1.39m-24.23,0a19.66,19.66,0,0,0,1.14,4.72s-3.94-.1-5.09,2.29c.38.37.75.69,1.11,1h0c3.35,2.64,5.85,1.58,7.46,0h0A10.65,10.65,0,0,0,14.44,31s-.56-2.19-1.3-4.88m6.91,8c-3.12-1.76-5,0-5,0l-1.68,0c-4,6.46,2.62,12.23,2.32,4,0,0,3,1.16,5.37-3.29A9.27,9.27,0,0,0,20.05,34.08Zm.75-8c.86-3.34-3.18-2.63-4,0h0c-3.73,9,1.56,6.73,4,0m24.46,0a5.5,5.5,0,0,0,2.56,6.08,13.2,13.2,0,0,0-2.15,1.92h0c-3.76,4.8,5.39,2.78,5.81,2.19,0,0,1.42,3.4,3.82,4.54,3.51-2.42,2.65-5.66,1.78-7.65,0,0,7.35-1.9,7.43-5-1.65-1-7.31.56-7.31.56s.42-1.14.83-2.64h0c2.75-11.61-3.77-7.36-6.55,0h0l-.43.89s-.76-.43-1.76-.89m-36.15,0c-.81-3-1.84-6.55-2.62-8.54-2.82,2.15-3.15,5.67-2.83,8.54m41.6,0A9.53,9.53,0,0,0,45.58,25a9.42,9.42,0,0,0-.32,1.1"/><path class="a4c365ad-65fe-42c3-8b11-d7760aa97d59" d="M59,43.74l6.38,13.94s-15,.17-18-.1c-2.88,10.82-10.36-3-10.95-5l1.17-.79c.71.43,4.34,8.75,7.25,7.44,1-1,.17-3.09.17-3.09-.67-1.28-4.26-8.56-7.84-10.41-4.8,3.74-8.59.81-9,.51-3.07-2.1,3.32-4,4.34-5.07-6.68-6-7.13,2.25-13.5,3.22,0,0-6.54.12-9.83.23-.33,0-.16.47-.16.47s7.07,12.57,7.41,12.58a28.64,28.64,0,0,1,7.44-.24c2.42,3.07,3,10.58,9.2,8.88.44-.18.21-.52,0-.72-2.57-1.86-5.81-9-5.81-9l1.34-.68c1,.9,5.72,12.77,10,7.7-1.77-.14-7-9.11-7-9.11l1.59-.89c1,1,5,10.71,9.42,8.52A1.86,1.86,0,0,1,40.39,64s-3.49,4-6.11,2.56c-.34,1.76-4.27,2.6-7,.44,0,0-3.79.86-2.71-2.79,0,0-3.57,0-2.08-4.06a3.92,3.92,0,0,1-1-1.56c-3.86.41-5.1.88-6.48-.17L7.17,44.75s-.9-1.46.95-1.46L19,43c6.24-.94,7.12-9.51,15.3-3,5.57-3.76,9.29-.47,14.06,3.73Z"/></g></g></svg>