<?xml version="1.0" standalone="no"?>
<!DOCTYPE svg PUBLIC "-//W3C//DTD SVG 20010904//EN"
 "http://www.w3.org/TR/2001/REC-SVG-20010904/DTD/svg10.dtd">
<svg version="1.0" xmlns="http://www.w3.org/2000/svg"
 width="299.000000pt" height="299.000000pt" viewBox="0 0 299.000000 299.000000"
 preserveAspectRatio="xMidYMid meet">
<metadata>
Created by potrace 1.11, written by Peter Selinger 2001-2013
</metadata>
<g transform="translate(0.000000,299.000000) scale(0.100000,-0.100000)"
fill="#000000" stroke="none">
<path d="M1642 2793 c-86 -79 -197 -294 -287 -559 l-38 -112 -41 15 c-77 27
-201 53 -290 59 l-89 7 7 -59 c14 -123 109 -256 243 -338 l61 -38 -39 -35
c-86 -78 -219 -281 -219 -335 0 -22 26 -23 103 -3 100 26 195 84 340 207 l37
32 53 -56 c105 -110 219 -182 279 -176 39 4 46 22 47 133 1 89 -15 174 -52
285 l-25 75 49 44 c55 48 117 134 141 196 35 88 35 185 0 185 -27 0 -117 -45
-208 -105 -46 -30 -84 -53 -84 -51 0 1 18 57 39 122 75 229 96 417 55 499 -10
21 -24 40 -30 42 -6 2 -29 -13 -52 -34z m-148 -784 c39 -31 35 -72 -11 -119
-35 -34 -105 -61 -120 -46 -11 11 32 122 60 153 34 39 36 39 71 12z"/>
<path d="M436 2215 c-59 -77 -71 -120 -70 -250 1 -89 6 -138 21 -187 11 -37
18 -70 15 -73 -3 -3 -21 -5 -41 -5 -69 0 -176 -68 -157 -99 13 -21 116 -81
156 -92 58 -15 106 -6 161 30 47 32 119 131 119 165 0 59 -147 546 -166 546
-6 0 -24 -16 -38 -35z"/>
<path d="M2363 2183 c-40 -38 -81 -101 -143 -216 -28 -53 -53 -97 -54 -97 -2
0 -36 15 -77 34 -98 45 -145 54 -152 29 -29 -95 -13 -173 47 -240 l42 -46 -44
-41 c-72 -66 -89 -117 -51 -152 26 -23 110 -23 189 0 29 9 57 16 60 16 4 0 24
-27 44 -60 35 -57 99 -120 121 -120 18 0 73 63 89 102 19 45 20 129 2 179
l-13 36 56 18 c122 38 218 100 241 156 11 26 11 32 -1 40 -22 14 -111 11 -199
-7 -45 -9 -83 -15 -85 -13 -2 2 8 42 21 89 47 162 42 284 -12 309 -37 16 -49
14 -81 -16z"/>
<path d="M804 1980 c-73 -48 -147 -283 -102 -328 40 -40 207 179 211 279 1 45
-7 57 -48 64 -20 4 -40 -1 -61 -15z"/>
<path d="M696 1585 c-15 -8 -44 -15 -63 -15 -31 0 -36 -4 -53 -43 -26 -59 -40
-156 -30 -203 10 -45 50 -84 85 -84 34 0 58 40 63 106 4 54 5 54 39 54 50 0
107 34 148 86 19 26 35 50 35 55 0 4 -23 19 -52 33 -59 30 -127 34 -172 11z"/>
<path d="M1197 1416 c-50 -18 -98 -51 -184 -125 -106 -91 -107 -92 -392 -98
-135 -3 -257 -10 -270 -15 -17 -6 -22 -14 -18 -28 9 -33 328 -584 349 -603 22
-19 107 -22 204 -8 50 7 52 6 70 -23 14 -23 18 -47 15 -91 -3 -66 8 -84 62
-104 23 -9 27 -16 27 -49 0 -49 27 -75 80 -78 21 -1 60 -12 86 -25 80 -38 220
-25 236 23 3 8 23 13 54 13 58 1 108 23 168 76 24 21 53 39 64 39 25 0 58 28
66 56 6 20 4 21 -37 17 -30 -4 -56 0 -82 13 -43 20 -124 117 -210 253 -32 50
-59 91 -62 91 -2 0 -18 -7 -34 -16 l-30 -15 27 -47 c36 -63 158 -241 187 -272
12 -14 34 -35 50 -47 l27 -21 -34 -21 c-18 -12 -50 -21 -70 -21 -62 0 -139 85
-261 285 -27 44 -50 81 -51 83 -3 6 -54 -22 -54 -30 0 -36 154 -290 210 -346
23 -23 39 -46 35 -51 -10 -18 -75 -24 -117 -12 -67 21 -107 68 -193 231 l-80
152 -158 -5 -158 -5 -23 37 c-56 89 -276 476 -276 487 0 8 70 13 232 18 272 9
263 6 396 125 99 89 119 101 162 101 32 0 116 -37 159 -69 l25 -19 -60 -37
c-32 -20 -81 -50 -107 -66 -41 -25 -48 -34 -45 -56 4 -39 74 -89 144 -103 68
-14 158 3 222 44 l39 25 66 -49 c68 -52 111 -111 215 -297 60 -106 73 -160 48
-198 -19 -30 -37 -31 -78 -7 -30 17 -134 149 -197 249 -28 45 -36 51 -51 43
-11 -6 -22 -15 -25 -20 -9 -14 76 -172 135 -253 83 -112 151 -148 219 -113 32
17 79 84 87 124 l6 27 368 0 c203 0 371 3 375 6 3 4 -53 134 -124 290 l-130
284 -222 3 -222 2 -37 34 c-56 50 -184 134 -257 168 -78 37 -108 35 -215 -14
l-75 -35 -54 33 c-53 34 -148 74 -172 74 -7 -1 -29 -7 -50 -14z"/>
</g>
</svg>
